<svg xmlns="http://www.w3.org/2000/svg" width="172" viewBox="0 0 172 29" height="29" version="1.0"><g fill="none" fill-opacity="1"><g transform="translate(94.089226, 201.001907)"><g><path d="M 13.480469 -28.238281 L 3.441406 -28.238281 L 3.441406 0 L 13.480469 0 C 22.636719 0 27.238281 -6.960938 27.238281 -13.960938 C 27.238281 -20.957031 22.636719 -28.238281 13.480469 -28.238281 Z M 13.480469 -4.039062 L 7.480469 -4.039062 L 7.480469 -24.199219 L 13.480469 -24.199219 C 19.957031 -24.199219 23.238281 -18.917969 23.238281 -13.960938 C 23.238281 -9 19.957031 -4.039062 13.480469 -4.039062 Z M 13.480469 -4.039062 "/></g></g></g><g fill="#000000" fill-opacity="1"><g transform="translate(123.086345, 201.001907)"><g><path d="M 2.761719 -27.199219 C 2.761719 -25.679688 4 -24.917969 5.199219 -24.917969 C 6.441406 -24.917969 7.640625 -25.679688 7.640625 -27.199219 C 7.640625 -28.71875 6.441406 -29.4375 5.238281 -29.4375 C 4 -29.4375 2.761719 -28.679688 2.761719 -27.199219 Z M 3.238281 -21.878906 L 7.160156 -21.878906 L 7.160156 0 L 3.238281 0 Z M 3.238281 -21.878906 "/></g></g></g><g fill="#000000" fill-opacity="1"><g transform="translate(133.845278, 201.001907)"><g><path d="M 5.160156 -21.957031 L 1.078125 -21.957031 L 1.078125 -21.636719 L 8.441406 -11.078125 L 1.238281 -0.199219 L 1.238281 0.0390625 L 5.320312 0.0390625 L 10.558594 -8.121094 L 15.839844 0.0390625 L 20 0.0390625 L 20 -0.078125 L 12.679688 -11.078125 L 20.160156 -21.839844 L 20.160156 -21.957031 L 15.960938 -21.957031 L 10.558594 -14.199219 Z M 5.160156 -21.957031 "/></g></g></g><g fill="#000000" fill-opacity="1"><g transform="translate(154.923188, 201.001907)"><g><path d="M 2.761719 -27.199219 C 2.761719 -25.679688 4 -24.917969 5.199219 -24.917969 C 6.441406 -24.917969 7.640625 -25.679688 7.640625 -27.199219 C 7.640625 -28.71875 6.441406 -29.4375 5.238281 -29.4375 C 4 -29.4375 2.761719 -28.679688 2.761719 -27.199219 Z M 3.238281 -21.878906 L 7.160156 -21.878906 L 7.160156 0 L 3.238281 0 Z M 3.238281 -21.878906 "/></g></g></g><g fill="#000000" fill-opacity="1"><g transform="translate(165.682121, 201.001907)"><g><path d="M 8.121094 -21.636719 L 8.121094 -26.4375 L 4.199219 -25.679688 L 4.199219 -21.636719 L 0.960938 -21.636719 L 0.960938 -18.519531 L 4.199219 -18.519531 L 4.199219 -6.359375 C 4.199219 -1.320312 6.960938 0.121094 11.199219 0.121094 C 11.757812 0.121094 12.359375 0.078125 13 0.0390625 L 13 -3.238281 C 12.398438 -3.199219 11.839844 -3.160156 11.359375 -3.160156 C 9.398438 -3.160156 8.121094 -3.757812 8.121094 -6.320312 L 8.121094 -18.519531 L 12.878906 -18.519531 L 12.878906 -21.636719 Z M 8.121094 -21.636719 "/></g></g></g><g fill="#000000" fill-opacity="1"><g transform="translate(189.399772, 201.001907)"><g><path d="M 8.71875 -24.4375 L 8.71875 0 L 12.757812 0 L 12.757812 -24.4375 L 21.199219 -24.4375 L 21.199219 -28.277344 L 0.238281 -28.277344 L 0.238281 -24.4375 Z M 8.71875 -24.4375 "/></g></g></g><g fill="#000000" fill-opacity="1"><g transform="translate(210.877641, 201.001907)"><g><path d="M 2.761719 -27.199219 C 2.761719 -25.679688 4 -24.917969 5.199219 -24.917969 C 6.441406 -24.917969 7.640625 -25.679688 7.640625 -27.199219 C 7.640625 -28.71875 6.441406 -29.4375 5.238281 -29.4375 C 4 -29.4375 2.761719 -28.679688 2.761719 -27.199219 Z M 3.238281 -21.878906 L 7.160156 -21.878906 L 7.160156 0 L 3.238281 0 Z M 3.238281 -21.878906 "/></g></g></g><g fill="#000000" fill-opacity="1"><g transform="translate(221.636574, 201.001907)"><g><path d="M 3 0 L 6.917969 0 L 6.917969 -28 L 3 -28 Z M 3 0 "/></g></g></g><g fill="#000000" fill-opacity="1"><g transform="translate(231.555591, 201.001907)"><g><path d="M 25.476562 0 L 25.476562 -21.636719 L 21.558594 -21.636719 L 21.597656 -18.757812 C 19.679688 -21.359375 16.4375 -22 13.757812 -22 C 6.441406 -22 2.199219 -16.757812 2.199219 -10.917969 C 2.199219 -4.960938 6.28125 0.359375 13.839844 0.359375 C 16.519531 0.320312 20 -0.558594 21.558594 -2.917969 L 21.558594 0 Z M 21.558594 -10.839844 C 21.558594 -5.640625 17.359375 -3.121094 13.757812 -3.121094 C 8.960938 -3.121094 6.121094 -6.839844 6.121094 -10.917969 C 6.121094 -15.199219 9 -18.558594 13.757812 -18.558594 C 17.4375 -18.558594 21.558594 -16 21.558594 -10.839844 Z M 21.558594 -10.839844 "/></g></g></g><g fill="#000000" fill-opacity="1"><g transform="translate(259.632799, 201.001907)"><g><path d="M 3.039062 -27.316406 C 3.039062 -25.796875 4.28125 -25.039062 5.480469 -25.039062 C 6.71875 -25.039062 7.917969 -25.796875 7.917969 -27.316406 C 7.917969 -28.839844 6.71875 -29.558594 5.519531 -29.558594 C 4.28125 -29.558594 3.039062 -28.796875 3.039062 -27.316406 Z M 3.519531 -0.199219 L 3.519531 -21.878906 L 7.441406 -21.878906 L 7.441406 -0.441406 C 7.441406 4.757812 4.601562 6.757812 0.320312 6.757812 C -0.199219 6.757812 -0.761719 6.757812 -1.359375 6.679688 L -1.359375 3.238281 C -1.039062 3.28125 -0.71875 3.28125 -0.441406 3.28125 C 1.71875 3.28125 3.519531 2.480469 3.519531 -0.199219 Z M 3.519531 -0.199219 "/></g></g></g><g fill="#000000" fill-opacity="1"><g transform="translate(270.15175, 201.001907)"><g><path d="M 2.761719 -27.199219 C 2.761719 -25.679688 4 -24.917969 5.199219 -24.917969 C 6.441406 -24.917969 7.640625 -25.679688 7.640625 -27.199219 C 7.640625 -28.71875 6.441406 -29.4375 5.238281 -29.4375 C 4 -29.4375 2.761719 -28.679688 2.761719 -27.199219 Z M 3.238281 -21.878906 L 7.160156 -21.878906 L 7.160156 0 L 3.238281 0 Z M 3.238281 -21.878906 "/></g></g></g></svg>