<svg version="1.1" id="Layer_1" xmlns="http://www.w3.org/2000/svg" xmlns:xlink="http://www.w3.org/1999/xlink" x="0px" y="0px"
	 width="100%" viewBox="0 0 1024 1024" enable-background="new 0 0 1024 1024" xml:space="preserve" style="color: currentColor;">
<path fill="currentColor" opacity="1.000000" stroke="none" 
	d="
M524.978638,780.987915 
	C529.990845,788.750977 537.776550,789.875061 546.145508,790.342773 
	C554.468872,790.807922 562.516785,787.316833 570.821594,788.935791 
	C578.596436,790.451477 583.130127,786.653198 586.227905,779.969543 
	C583.491516,779.991028 581.718933,781.908386 579.596252,783.035400 
	C578.061401,783.850281 576.218079,784.679504 575.098145,782.990723 
	C573.822815,781.067688 575.622803,780.013062 577.141907,779.231812 
	C584.238525,775.582153 589.874878,770.376404 594.746338,764.037292 
	C598.385132,759.302246 603.219604,755.642883 608.531250,752.821106 
	C604.792419,742.725098 603.004089,732.332153 601.833984,721.673706 
	C599.566650,722.604614 601.936279,724.862366 599.692749,725.720459 
	C597.821045,726.072083 596.628479,724.458130 595.824341,722.912964 
	C586.628784,705.243408 570.608948,693.988586 556.610046,680.800232 
	C545.945862,670.753540 535.655518,660.309082 525.255432,649.984619 
	C524.160767,648.898010 522.629578,647.777039 523.770203,644.645325 
	C531.127197,650.459290 536.829651,657.408752 543.172546,663.605347 
	C549.580627,669.865540 555.699646,676.413025 563.484436,682.629883 
	C563.477173,678.227844 560.790649,676.381348 558.996704,674.080627 
	C557.244812,671.833801 554.215881,670.665710 552.947815,667.753967 
	C555.887573,666.156067 557.115234,668.197388 558.516357,669.395386 
	C563.738159,673.859680 568.076233,679.181824 572.152710,684.635559 
	C580.458069,695.746704 589.329407,706.235107 600.374451,714.789368 
	C603.615295,717.299316 607.183411,719.666077 605.341003,725.403320 
	C604.501343,728.017883 607.116089,731.589478 607.680359,734.902893 
	C608.489319,739.652893 609.894592,744.300476 610.729980,749.047241 
	C611.340149,752.514465 613.060181,753.927795 616.531860,753.638672 
	C620.837463,753.280090 625.156433,753.032104 629.474609,752.897583 
	C631.258545,752.842102 633.472229,752.628662 634.393616,754.555359 
	C635.383911,756.626587 633.766052,758.339539 632.683899,759.970703 
	C632.141602,760.788147 631.320801,761.425598 630.603394,762.121277 
	C622.828308,769.661499 615.281860,777.417053 608.152588,785.578674 
	C607.039368,786.853027 606.139404,788.742981 602.704407,788.331970 
	C608.071289,778.142273 618.246887,772.701660 623.692139,763.379456 
	C612.834778,771.390747 603.840210,781.615356 593.199158,790.820374 
	C592.202026,787.388367 594.032715,786.576843 595.066162,785.462402 
	C602.323669,777.635071 610.580383,770.864990 618.350891,763.578918 
	C619.594482,762.412781 622.090881,761.311035 620.554749,759.296448 
	C618.829407,757.033813 617.001160,759.048645 615.504822,760.291321 
	C607.564026,766.885742 599.608826,773.463867 591.746765,780.151306 
	C588.847595,782.617310 585.985535,785.183411 583.922852,788.688293 
	C586.149231,792.474243 591.157166,790.715881 593.935059,793.725830 
	C592.091797,796.869812 589.094849,796.324036 586.492126,795.977234 
	C580.986023,795.243713 575.634460,794.760376 570.318604,797.170105 
	C568.547729,797.972900 566.452454,798.588989 565.330505,795.225891 
	C564.536194,792.844788 561.344910,793.863647 559.246826,794.174561 
	C546.405151,796.077759 533.906006,796.263428 522.928223,787.757019 
	C521.349487,786.533691 519.884766,786.888062 518.296448,787.722900 
	C503.816772,795.333862 489.319824,794.358398 474.633545,788.138855 
	C470.539490,786.405029 465.674408,784.171753 461.737579,784.976807 
	C456.869476,785.972412 451.299713,783.698486 447.393005,786.632629 
	C438.992523,792.941833 429.868286,792.968750 420.247925,791.866333 
	C416.019440,791.381836 411.308777,788.061584 407.792480,793.649475 
	C407.212463,794.571289 405.612457,793.984253 404.456146,793.774841 
	C397.414093,792.499817 390.364380,791.267029 383.321533,789.996277 
	C379.658966,789.335510 379.374359,787.573425 381.584564,784.836121 
	C384.825195,780.822571 387.942932,776.710022 391.155548,772.673462 
	C392.572388,770.893311 392.480774,769.422241 390.624329,768.016174 
	C389.036346,766.813354 387.725739,765.049377 385.966064,764.303223 
	C379.813965,761.694519 376.022003,757.161987 373.207672,751.208496 
	C370.730194,745.967468 367.320770,741.171509 364.400482,736.133972 
	C362.155029,732.260681 360.385406,727.931152 354.852600,728.015991 
	C356.780823,721.303162 356.832886,721.134827 350.019470,719.027649 
	C344.082214,717.191528 338.399445,714.274048 331.933014,714.398010 
	C331.238861,714.411377 330.342285,713.829651 329.856598,713.255798 
	C322.983459,705.133301 313.826019,705.752258 304.607819,706.574829 
	C304.112244,706.619080 303.614258,706.870178 303.134888,706.827698 
	C289.590668,705.626892 279.353729,711.985474 270.007141,720.869629 
	C262.621826,727.889648 254.510056,733.993958 244.908264,737.831787 
	C243.053329,738.573181 241.312683,739.607605 240.619797,741.819946 
	C241.924713,744.935486 245.069473,743.197388 247.104919,744.246338 
	C250.054550,745.766418 247.956039,748.812378 248.899841,751.484192 
	C254.399246,751.515320 258.671814,747.585693 263.839905,746.840698 
	C269.943207,745.960999 275.882111,742.264648 282.219788,745.800659 
	C283.579163,746.559204 285.539185,746.855896 285.276764,749.139832 
	C284.048645,750.860046 282.500763,750.102112 281.242126,749.502380 
	C276.592316,747.286316 272.120117,748.687988 267.614685,749.914612 
	C266.117279,750.322266 264.837372,750.953552 264.298096,752.603699 
	C260.214691,765.099365 256.104004,777.586243 252.021652,790.082275 
	C251.927643,790.369995 252.066208,790.733765 252.137543,791.512146 
	C257.143036,793.563049 262.563843,793.762451 268.016418,793.585144 
	C269.868896,793.524963 270.193726,791.743713 270.812347,790.421448 
	C275.057709,781.347168 277.578735,771.662659 280.782135,762.218994 
	C281.385773,760.439270 281.492065,758.315369 284.531281,756.763733 
	C282.600677,770.126465 275.365540,781.402893 275.491089,794.400635 
	C280.931000,786.142944 282.690399,776.376709 286.846252,767.573669 
	C289.097290,772.464966 284.393097,776.632202 285.635254,781.828979 
	C282.510956,785.941589 282.269318,790.077026 282.911285,794.402039 
	C285.457733,790.611816 285.109222,786.144104 285.968750,781.965759 
	C286.700439,780.481079 287.675873,779.063721 288.109344,777.496582 
	C288.843140,774.843689 290.249390,775.159607 291.863800,776.414490 
	C293.610779,774.622253 292.540588,771.472168 295.627899,770.376648 
	C297.594330,774.445984 293.723053,778.013306 294.871338,782.422302 
	C308.131012,781.800842 320.024719,786.838074 333.111542,791.923706 
	C330.001068,794.026733 328.159943,793.205750 326.310974,792.704224 
	C319.403839,790.830627 312.498718,788.948914 305.577637,787.128052 
	C297.027985,784.878784 293.861145,786.609558 291.281433,795.090820 
	C290.438660,797.861572 288.250397,798.482971 285.955658,798.890442 
	C281.313477,799.714844 276.654327,799.262390 272.007690,798.741150 
	C259.137634,797.297302 246.334915,795.058777 233.387939,798.812012 
	C225.224335,801.178650 217.355820,797.553650 209.432739,796.141724 
	C206.809341,795.674255 203.591080,796.556458 201.601944,793.732544 
	C201.020874,791.824036 203.963943,791.343750 203.311188,789.207703 
	C201.405701,787.117798 199.156296,788.317200 197.030334,789.050903 
	C190.526825,791.295715 183.864578,792.595947 176.978058,792.681824 
	C174.862427,792.708252 172.590424,793.114197 171.228104,790.497864 
	C172.808731,787.647644 175.720871,787.700745 178.155304,787.967224 
	C187.275604,788.965637 195.098511,783.097290 204.046875,783.322205 
	C204.814529,783.341553 205.887283,782.388916 206.352127,781.609680 
	C213.100464,770.297241 222.123428,760.398315 226.462296,747.557922 
	C228.861145,740.458801 233.908676,735.020264 241.143738,732.109253 
	C249.481750,728.754456 256.278656,723.128906 263.035370,717.419617 
	C265.832611,715.055969 269.010223,713.087952 271.554230,710.489075 
	C280.048767,701.811462 290.893829,700.200562 302.197968,699.844360 
	C307.359528,699.681641 312.527374,699.700195 317.692535,699.681091 
	C319.182068,699.675598 321.099457,700.184509 321.761688,698.585327 
	C323.492218,694.406738 327.380981,690.977539 328.161041,686.958618 
	C329.435089,680.394836 332.618439,674.390381 333.139465,667.696777 
	C333.648651,661.155762 337.154541,656.163513 341.624542,651.736450 
	C348.023102,645.399292 353.894257,638.597473 359.706177,631.729370 
	C362.711700,628.177734 364.118988,623.935486 365.606995,619.700867 
	C366.544830,617.031982 367.570648,614.352661 368.105469,611.590576 
	C370.762543,597.867493 378.321930,588.135864 390.996521,582.134216 
	C401.710419,577.061035 409.952240,569.321838 414.902191,558.339478 
	C417.859253,551.778748 422.918213,547.003235 428.363434,542.500000 
	C432.186371,539.338318 435.707855,535.812134 439.313782,532.494873 
	C429.661835,515.862915 422.711121,498.404572 415.645477,481.007690 
	C410.072601,467.286316 404.375916,453.593201 401.296021,439.015228 
	C400.459656,435.056366 400.368591,431.076843 401.267517,427.117889 
	C403.976135,415.188232 412.149872,409.009094 424.333130,409.640076 
	C430.546417,409.961884 431.401764,409.009491 429.333984,403.325317 
	C426.400177,395.260437 427.850464,387.136139 429.011322,379.114349 
	C431.034698,365.132538 432.660461,350.991333 436.186981,337.365753 
	C438.437653,328.669800 436.808868,319.115967 440.971130,311.370514 
	C445.519257,302.907074 443.603943,297.427277 438.344482,290.143036 
	C429.998657,278.584167 425.704742,265.137817 428.770172,250.497345 
	C430.267548,243.345856 433.226471,236.838760 440.193817,233.137527 
	C441.042938,232.686432 441.842926,231.938965 442.931091,232.537781 
	C443.642212,233.330750 443.421051,234.209686 442.779846,234.754395 
	C432.428833,243.547791 431.588898,255.135757 433.894104,267.189301 
	C435.929688,277.832733 441.042847,287.196350 448.310822,295.326447 
	C453.500061,301.131287 460.088348,304.751465 467.472137,306.459595 
	C476.431793,308.532257 483.103210,303.612671 489.307770,297.919983 
	C490.734406,296.611053 492.003143,293.263458 494.289185,295.256989 
	C496.441803,297.134186 493.497223,299.020935 492.386047,300.636353 
	C491.180084,302.389587 489.551483,303.852142 488.056183,305.497589 
	C488.553741,308.526764 492.602661,310.703064 490.551361,314.299164 
	C488.264984,315.250580 487.648590,312.542236 485.591156,312.704102 
	C479.681335,317.164001 475.028778,322.886047 472.373474,330.122467 
	C469.552094,337.811493 466.196198,345.296997 461.840820,352.184448 
	C458.468994,357.516510 458.022552,362.906586 458.650696,368.859528 
	C459.401794,375.977631 459.834869,383.142120 458.396515,390.260925 
	C458.137238,391.544281 458.234680,392.973541 456.581848,393.635529 
	C454.129120,392.942291 454.847656,390.839417 454.778320,389.176758 
	C454.056915,371.876190 453.335449,354.575317 452.722137,337.270721 
	C452.628204,334.619568 451.854706,333.059906 448.979980,333.333191 
	C446.416260,333.576843 444.099487,332.482452 441.689636,332.029175 
	C436.176270,343.281738 431.876373,398.426941 436.308472,404.572754 
	C444.533020,400.897949 452.860138,397.165894 461.481842,394.173279 
	C462.337341,393.876343 463.020111,392.918427 463.648926,392.156586 
	C472.132263,381.878021 480.544556,371.540283 489.097809,361.320435 
	C490.775696,359.315643 489.567566,357.969574 488.710815,356.416534 
	C485.946625,351.406097 483.179352,346.401001 481.638672,340.433533 
	C485.698029,339.835144 486.490906,342.720642 487.533966,344.632843 
	C493.146667,354.922333 499.967499,364.345062 507.477081,373.300507 
	C508.209106,374.173523 508.977661,375.015839 510.045105,376.232330 
	C512.789490,371.430023 513.989685,366.437714 515.485046,361.605255 
	C519.618896,348.246124 523.089783,334.711609 525.863098,320.995270 
	C526.352844,318.573029 526.385315,315.667664 529.170776,313.953156 
	C531.895325,316.631104 530.351440,319.540649 529.980835,322.061798 
	C527.479370,339.075958 522.868591,355.574402 517.424500,371.860596 
	C516.054443,375.959137 512.343750,380.057953 517.779846,384.317047 
	C496.242828,386.896667 477.311340,395.705688 457.432770,401.142456 
	C455.348999,401.712372 453.362854,402.731293 451.254181,403.099854 
	C446.285217,403.968323 446.996552,407.576172 447.543762,410.804840 
	C448.137909,414.310486 450.940582,413.695831 453.493134,413.369110 
	C458.446381,412.735199 463.413147,412.207458 468.372467,411.620148 
	C470.689575,411.345734 473.094238,411.188385 475.042450,409.771729 
	C481.656067,404.962646 488.912323,405.238617 496.560638,406.312958 
	C505.993774,407.637939 515.161865,405.244080 523.824707,401.917999 
	C528.610291,400.080566 530.398926,394.588837 532.573669,390.113586 
	C539.493530,375.873901 545.478699,361.222687 551.472961,346.577148 
	C552.986694,342.878662 554.593994,339.216644 556.241821,335.575714 
	C556.974426,333.957031 557.678589,332.183411 559.857605,331.919128 
	C561.950256,333.647827 560.551758,335.455475 560.014343,336.965912 
	C553.033203,356.587372 545.602417,376.029816 536.243103,394.672028 
	C535.273560,396.603241 534.394531,398.706543 532.958557,400.251373 
	C529.647400,403.813599 529.032776,407.466766 529.726746,412.381836 
	C530.356384,416.840973 531.788635,419.274292 535.844910,420.809509 
	C538.942322,421.981873 541.972717,423.514069 544.746338,425.325134 
	C553.296021,430.907776 562.610474,433.831787 572.760376,434.791443 
	C577.724976,435.260803 582.563782,436.915985 585.452026,441.704895 
	C580.193298,440.958649 575.160950,439.945160 569.440247,438.793060 
	C571.238586,441.788971 575.032593,442.090240 574.313416,445.636353 
	C572.130554,447.107849 570.404114,445.744659 568.706543,444.833832 
	C565.625061,443.180603 562.620422,441.384155 559.582214,439.650208 
	C540.304993,428.648102 520.782471,417.818420 499.186676,412.376770 
	C481.654266,407.959015 473.780945,412.958160 471.461609,429.691925 
	C470.737762,434.914459 470.763153,440.433899 471.569916,445.643250 
	C475.798889,472.949768 479.041656,500.348114 480.187012,527.964539 
	C480.305634,530.824768 481.922974,532.666992 483.856812,533.116150 
	C486.694519,533.775330 489.538940,534.868286 492.629852,534.601379 
	C499.108704,534.041992 500.947601,532.211426 501.678253,525.715576 
	C502.757233,516.122803 504.136688,506.563538 505.193359,496.968506 
	C507.124786,479.430328 509.074524,461.886475 506.672638,444.211273 
	C506.446594,442.547852 505.069733,440.726501 506.759430,438.965851 
	C509.663910,438.441803 509.923004,440.755737 510.436951,442.579651 
	C512.251709,449.020447 513.087219,455.611664 513.140198,462.297729 
	C513.158936,464.662994 513.178528,466.910400 515.303772,468.617950 
	C525.175476,476.549377 534.724792,485.085022 546.723572,489.680023 
	C559.567078,494.598572 579.229614,493.492615 589.073608,479.066589 
	C594.427917,471.220032 595.512756,462.483490 595.696533,453.383911 
	C595.774475,449.524658 595.848755,446.090240 590.682617,445.393921 
	C588.839966,445.145508 586.974060,443.887665 585.955444,441.973846 
	C588.900330,441.157532 591.898682,442.043396 595.304382,441.786316 
	C596.509766,434.940552 595.109070,428.144958 594.425049,421.520630 
	C591.650085,394.647308 586.288330,368.250427 577.470398,342.660461 
	C573.230164,330.355103 567.882202,318.547821 560.582520,307.653778 
	C554.040955,297.891174 544.997498,293.055511 533.431580,292.264496 
	C527.960022,291.890289 522.496704,291.207977 517.070984,290.391083 
	C507.455719,288.943420 501.993744,282.854523 501.552307,273.318665 
	C500.991852,261.212006 499.397552,249.449448 491.858368,239.296387 
	C481.512085,225.362976 466.861237,221.620377 451.265533,229.070999 
	C449.684235,229.826431 448.215881,231.080612 445.975189,230.749283 
	C445.553558,226.692825 448.785767,225.646484 451.146637,224.321884 
	C465.848938,216.072922 484.884949,220.951584 495.499176,235.383865 
	C503.379272,246.098541 506.261719,258.140381 505.298370,271.196869 
	C504.977814,275.541687 506.340820,278.982178 509.289734,282.016083 
	C511.585785,284.378296 514.134155,285.764954 517.591858,285.926666 
	C523.901062,286.221741 530.188110,286.977997 536.486511,287.517303 
	C549.420288,288.624847 558.776611,295.311249 565.869446,305.883728 
	C576.687744,322.009369 583.344971,339.896515 588.293213,358.471313 
	C595.852783,386.848572 601.424133,415.499969 600.358032,445.139679 
	C600.140076,451.197937 601.762573,457.313019 601.042419,463.515717 
	C600.101929,471.616302 597.441040,479.012756 592.064209,486.234406 
	C597.943787,488.819366 603.264038,491.410706 608.768982,493.519806 
	C617.122803,496.720367 624.705261,500.855560 630.727295,507.732635 
	C633.106445,510.449554 636.702393,511.888306 640.145935,513.160034 
	C657.524536,519.578064 671.154541,530.747681 682.351990,545.387085 
	C689.110840,554.223633 697.802307,561.421509 704.705444,570.199768 
	C708.207886,574.653625 711.696899,579.091797 714.549988,584.012756 
	C716.404907,587.212158 719.033997,589.861633 721.853210,592.170776 
	C734.358765,602.413940 743.285278,615.238403 749.632812,629.977112 
	C752.178528,635.888184 756.230469,640.809509 760.443604,645.490417 
	C766.736694,652.482239 771.353455,660.196960 772.591675,669.604858 
	C774.010193,680.382690 779.927368,689.165222 786.785400,696.619080 
	C795.148499,705.708740 799.256653,716.655212 803.434387,727.536926 
	C807.755127,738.791260 809.374634,750.999939 814.295654,762.161011 
	C815.017273,763.797546 815.826904,765.022217 817.257751,765.951233 
	C819.390625,767.336365 821.231262,769.121704 822.404297,771.314514 
	C823.776917,773.880432 825.348816,775.065613 828.367615,774.230225 
	C829.535767,773.906982 831.224182,774.088440 832.219849,774.738159 
	C839.221802,779.307617 847.383362,780.550659 855.085327,783.128845 
	C857.063721,783.791077 859.733276,784.146912 860.638489,787.034119 
	C858.623901,789.099365 856.335266,788.363098 854.193298,787.634521 
	C846.655945,785.070618 838.753235,783.753235 831.524475,780.017029 
	C828.196594,778.296997 823.919067,778.501038 820.536560,781.413635 
	C819.949341,781.919312 819.058716,782.217163 818.269897,782.322144 
	C810.287048,783.383362 802.334351,784.505066 795.745544,790.207275 
	C794.675537,787.350159 795.517883,785.088562 797.043823,784.221924 
	C802.843384,780.927979 801.800598,775.165894 802.510315,770.134033 
	C802.951233,767.007751 803.189636,763.994019 804.472351,760.976807 
	C806.791565,755.521790 802.114075,751.335999 801.056335,746.297180 
	C797.178406,757.277466 797.875549,768.992615 794.853882,780.069885 
	C792.419250,770.372253 796.374451,760.919373 795.693481,751.020264 
	C793.921021,752.854126 794.613159,755.671997 791.805420,757.814392 
	C791.139526,752.336548 792.972717,747.719177 793.631226,743.087463 
	C794.212341,739.000916 795.525391,735.014648 796.576233,731.000000 
	C797.339233,728.084961 795.863037,725.749329 794.523865,723.503906 
	C792.135498,719.499573 790.404968,715.416870 789.141968,710.816772 
	C787.654846,705.400269 782.407532,702.042297 777.960999,697.845886 
	C774.119690,723.646057 769.112061,749.084351 766.805603,776.312439 
	C770.301758,772.216309 769.770630,767.807922 772.139832,764.648254 
	C773.882874,768.439758 770.158630,780.013672 766.731812,781.252136 
	C763.820374,782.304443 763.659424,779.926575 763.827454,778.127869 
	C764.476318,771.178528 765.186462,764.229187 766.122009,757.313416 
	C768.705933,738.211548 772.108948,719.221436 773.938843,700.016418 
	C774.065125,698.690613 773.991150,697.283997 774.984863,696.245605 
	C777.322632,693.802856 775.345398,692.611877 773.737122,690.926453 
	C769.103699,701.916016 767.230469,713.170532 765.387390,724.434021 
	C762.460083,742.324341 759.553955,760.218384 756.562927,778.098083 
	C755.925049,781.910828 756.586792,783.957397 761.164185,784.132812 
	C769.156311,784.439209 776.984802,786.233765 784.786499,787.963501 
	C786.644714,788.375549 788.699036,788.587830 789.877380,791.027893 
	C785.513489,792.852356 781.483765,791.230591 777.518433,790.795166 
	C772.894897,790.287415 768.344177,789.113586 763.720276,788.612854 
	C758.547852,788.052734 753.539673,788.152100 749.236145,792.152649 
	C746.222351,794.954224 740.700867,792.642273 737.285461,787.513062 
	C740.642578,786.135925 743.604553,789.328430 747.121765,788.248718 
	C747.804077,768.114380 753.764771,748.757446 756.388672,728.481262 
	C759.766907,730.353271 758.261475,733.299561 757.827271,735.854736 
	C755.491394,749.600159 752.872620,763.297668 750.578613,777.049683 
	C750.156677,779.578979 749.120483,782.471741 752.594482,785.057617 
	C756.591736,760.949768 760.588928,736.841980 764.586182,712.734131 
	C759.799805,717.066040 758.771667,722.972351 756.018250,728.021301 
	C750.916565,732.239563 751.627441,738.567139 750.379333,744.102905 
	C748.110229,754.167236 746.279602,764.330261 744.258423,774.450623 
	C744.095886,775.264709 743.910278,776.094482 741.833008,776.424133 
	C742.298340,763.410034 746.881104,751.331726 748.742065,738.186523 
	C743.706177,741.132446 740.366516,743.970093 739.838257,750.044495 
	C739.276184,756.507690 737.053589,762.826538 735.463257,769.603699 
	C732.640442,768.265442 733.021729,766.231140 732.835693,764.598633 
	C732.244629,759.410583 733.138794,754.284851 734.121277,749.243408 
	C734.678101,746.386475 733.702942,745.093506 731.237976,744.521912 
	C728.408936,743.865723 728.484619,746.073914 728.136963,747.860840 
	C727.850952,749.331177 727.636780,750.851440 727.087585,752.228699 
	C723.622192,760.918762 727.838196,767.521057 733.100830,773.639343 
	C735.442810,776.362183 737.102478,778.880920 735.910461,782.565430 
	C734.565430,786.723206 732.670227,790.036987 727.573059,790.354370 
	C722.263855,790.684998 716.988953,791.537354 711.684021,791.982056 
	C709.742920,792.144714 707.573425,792.153687 706.806519,789.499817 
	C708.244751,786.879211 710.855103,787.752930 713.016968,787.502197 
	C717.801636,786.947266 722.645691,786.793579 727.386536,786.002502 
	C732.201721,785.199097 733.631592,780.968994 730.602539,777.234497 
	C725.515625,770.962646 720.616760,764.558960 718.560181,756.567078 
	C717.610962,752.878113 714.605591,752.493164 711.358826,751.613159 
	C712.550232,749.042603 711.081055,747.779602 709.138916,746.509644 
	C702.449402,742.135559 695.766968,737.740173 689.259583,733.103394 
	C686.853271,731.388855 684.583618,731.541199 682.193115,732.397522 
	C672.164246,735.990051 662.176575,739.697571 652.154419,743.309143 
	C650.337341,743.963989 648.867432,745.038635 647.887207,746.610840 
	C639.787659,759.600830 633.721924,773.629089 626.163940,788.110535 
	C632.192688,788.144470 637.463928,789.023743 642.088074,786.724487 
	C648.220825,783.675049 654.441223,783.174011 661.025513,783.755676 
	C669.083679,784.467529 669.079041,784.361328 672.605652,776.966980 
	C673.213562,775.692139 673.486816,773.987793 675.717224,773.712585 
	C677.514465,776.672791 675.912231,779.738647 675.472412,782.608643 
	C675.016357,785.584534 675.843384,786.975708 678.655762,787.655823 
	C687.696472,789.842041 696.597534,792.706177 705.997864,793.084656 
	C707.996460,793.165161 710.049011,793.221191 710.717285,796.059143 
	C707.783813,798.413208 704.369324,797.636169 701.294556,797.051270 
	C690.675537,795.031067 680.030945,793.027771 669.564453,790.358093 
	C660.102173,787.944519 651.131287,787.186157 641.867065,791.470947 
	C635.417114,794.454163 628.029846,793.299927 621.132568,793.348267 
	C617.057373,793.376831 618.578857,789.484802 620.254089,787.334534 
	C622.389282,784.593933 624.342712,781.846863 625.649475,778.150330 
	C620.915710,779.629150 620.595825,785.588623 615.910767,786.398865 
	C614.336792,783.801636 616.213989,782.572693 617.351624,781.395935 
	C621.611633,776.990173 625.350830,772.163452 630.050842,768.068787 
	C634.943665,763.806213 636.813538,757.106628 639.659851,751.288574 
	C642.966736,744.528870 647.783569,739.789185 655.253723,737.596497 
	C663.388672,735.208679 671.323608,732.145508 679.376831,729.470459 
	C681.817932,728.659485 683.621521,727.541138 683.297974,724.271179 
	C679.133667,724.043823 674.583435,728.341370 670.131470,723.857605 
	C670.834473,723.247681 671.257019,722.558411 671.763367,722.490173 
	C679.397095,721.461365 682.329834,715.371826 686.150269,709.860107 
	C693.277893,699.576782 698.499817,687.984558 706.038086,678.222168 
	C711.240845,671.484314 710.730469,666.431458 708.051880,659.899353 
	C706.602295,656.364502 705.547607,652.666809 704.337830,649.034973 
	C703.940491,647.842163 702.987488,646.603577 705.369629,644.703125 
	C710.715149,656.704041 716.885986,668.567261 716.404114,681.388489 
	C715.754822,698.666199 713.360596,716.062500 704.925049,731.851562 
	C704.161072,724.232056 708.275146,717.444336 708.541626,709.074524 
	C704.141418,716.575684 700.969421,723.735168 697.828308,730.913757 
	C696.839600,733.173401 698.124756,734.341003 699.783020,735.377869 
	C705.148865,738.733032 710.482300,742.142334 715.902771,745.407104 
	C720.023682,747.889160 720.785583,747.554626 723.289490,742.795471 
	C722.358582,740.426758 719.073181,741.800171 717.950134,739.289001 
	C719.350586,736.192078 721.943726,737.683105 724.219299,737.862854 
	C728.245056,738.180908 731.624817,740.963318 736.196716,739.812927 
	C745.113037,737.569336 749.173096,730.581177 752.465881,723.451111 
	C755.771606,716.292969 759.893372,709.759033 763.982178,703.106323 
	C768.922485,695.068176 769.753479,686.834167 767.696716,677.089172 
	C764.615784,662.491760 756.860413,651.242493 747.743469,640.312622 
	C746.066406,638.302002 744.601929,635.899414 743.774841,633.431274 
	C739.857666,621.742859 732.802612,611.723022 724.173523,603.630249 
	C708.202026,588.651489 697.836792,569.520874 683.901428,553.141907 
	C679.338135,547.778381 673.943787,542.911621 668.931030,537.830383 
	C658.626465,527.385132 645.884460,521.068604 632.701355,515.462708 
	C627.808044,513.381897 624.393066,509.439667 620.140198,506.573975 
	C610.493530,500.073822 599.284729,497.000671 589.328430,491.308380 
	C587.527466,490.278717 586.137451,491.290619 584.727234,492.170959 
	C572.031921,500.096344 558.559204,499.584259 544.670410,495.981628 
	C536.108032,504.053833 505.014923,547.503845 504.522339,552.133484 
	C509.683411,545.621399 514.848145,539.109436 520.012878,532.597412 
	C520.487305,532.927490 520.961670,533.257568 521.436096,533.587646 
	C518.897644,538.686462 514.869873,542.938477 511.394135,548.430664 
	C516.077759,548.285706 519.201416,547.624878 520.132568,543.067810 
	C520.628784,540.639648 521.599182,538.302856 522.426392,535.949768 
	C523.017822,534.267517 523.421387,532.311340 525.899658,532.477600 
	C527.594849,539.453308 522.505371,549.526917 516.195984,551.611755 
	C513.941833,552.356567 512.772949,554.092224 511.498749,555.866882 
	C506.972626,562.170654 499.522339,567.881226 494.594330,568.959595 
	C492.884613,568.339294 494.490112,566.441589 493.089783,565.455261 
	C485.030884,570.702820 476.754852,575.622620 467.310699,578.220337 
	C463.035980,579.396179 458.775970,579.806335 454.494904,578.823975 
	C450.295593,577.860474 447.191193,575.593689 446.886810,570.799683 
	C446.663727,567.286499 444.546692,566.628845 441.678284,567.602295 
	C439.319031,568.402954 437.106628,569.630920 434.756561,570.465149 
	C426.205505,573.500671 423.967255,572.887451 417.804749,565.506958 
	C414.343292,571.240234 409.077484,575.144409 405.050293,580.116577 
	C400.918671,585.217712 402.418976,591.924438 401.659058,597.932678 
	C401.393524,600.032043 403.934509,599.895630 405.578156,599.853149 
	C410.569519,599.724182 415.548279,599.242065 420.300323,597.698181 
	C424.746399,596.253723 428.403198,597.823914 430.046234,601.482361 
	C433.198273,608.500671 438.198090,611.452759 445.644348,611.302612 
	C451.649994,611.181519 457.147491,614.084290 463.206818,614.417847 
	C467.142212,614.634338 469.798859,613.827637 472.503296,611.191833 
	C477.637482,606.187927 482.868622,601.163452 490.758270,601.028687 
	C493.037231,600.989746 495.434998,600.326782 497.351837,602.201843 
	C497.512695,604.222229 496.098938,604.479065 494.750458,604.437500 
	C485.855194,604.163879 479.842010,609.364990 474.269897,615.264832 
	C471.489899,618.208252 468.956329,620.319214 464.343719,618.726379 
	C460.498596,617.398804 457.618408,618.893982 457.538239,623.784241 
	C457.427612,630.531738 455.838287,636.951721 452.416077,642.850952 
	C451.983002,643.597595 451.593445,644.291992 450.511353,644.382263 
	C448.220490,642.930725 449.412140,640.898621 449.890045,639.105347 
	C451.431641,633.320618 453.135284,627.578979 454.680908,621.795227 
	C455.091858,620.257568 455.856018,618.248535 453.459930,617.656799 
	C450.998627,617.049011 450.932526,619.366760 450.494049,620.801208 
	C448.130310,628.534302 445.884399,636.303467 443.428467,644.634644 
	C440.693604,642.014893 441.862152,639.560425 442.453522,637.404846 
	C444.082001,631.468628 445.943817,625.596069 447.744171,619.707764 
	C448.032532,618.764648 448.914062,617.630493 448.191620,616.890503 
	C445.027405,613.649414 440.611938,615.401978 436.842499,614.373535 
	C434.274658,613.673035 433.720490,616.014709 433.196838,618.078674 
	C430.250366,629.692200 427.224701,641.285583 424.213654,652.882629 
	C423.888855,654.133667 423.858551,655.570374 422.157440,656.326294 
	C419.867126,654.556030 421.406921,652.380737 421.864136,650.561401 
	C424.702454,639.266357 427.608032,627.986267 430.685394,616.754333 
	C431.810150,612.649109 431.010193,609.334229 427.404114,605.736938 
	C425.600342,612.803162 423.972717,619.322510 422.266968,625.821472 
	C420.577087,632.259827 419.335663,638.883728 416.925476,645.046021 
	C414.532288,651.164856 416.545990,658.251648 413.062531,664.371643 
	C409.962494,662.446777 410.815460,660.436157 411.186707,658.531677 
	C413.674225,645.772217 417.598480,633.375854 420.727142,620.778381 
	C421.970428,615.772339 423.223511,610.767761 424.367126,605.738586 
	C424.715820,604.205139 425.569550,602.053772 423.328613,601.476562 
	C420.995636,600.875671 419.217224,602.107971 418.461090,604.606079 
	C415.085114,615.759399 411.385498,626.824158 408.357025,638.070068 
	C406.431213,645.221436 403.211517,652.179321 403.918854,659.910950 
	C404.004517,660.846985 403.437500,661.848083 402.051971,662.277954 
	C399.740326,660.352783 400.733063,657.901733 401.195831,655.579956 
	C404.099304,641.012878 408.628448,626.905701 413.287018,612.833008 
	C414.214081,610.032471 415.303070,607.223755 414.907318,603.627319 
	C410.756317,603.836670 406.673218,603.976318 402.601257,604.270752 
	C399.803619,604.473083 399.378601,606.972473 398.761475,608.942627 
	C394.483063,622.601990 389.752686,636.126160 386.313599,650.039795 
	C386.002899,651.296753 385.965912,652.713989 383.073181,653.898193 
	C386.105316,637.098389 392.238678,622.049561 396.955475,606.433838 
	C392.888000,604.552368 390.637421,605.739685 389.470337,609.506958 
	C384.788727,624.619385 380.534119,639.851685 376.604218,655.176147 
	C375.796295,658.326538 376.668793,660.691040 379.504608,662.385193 
	C389.747803,668.504456 398.847504,676.579529 410.473145,680.338928 
	C413.954010,681.464539 416.854156,683.627014 417.874786,687.231079 
	C418.847656,690.666382 420.593231,690.499146 423.452850,689.754028 
	C434.335144,686.918457 444.354980,691.423279 454.604919,693.842041 
	C454.933563,693.919556 455.129242,694.560486 456.307678,696.290649 
	C450.940735,695.749573 446.587555,695.649292 442.381042,694.812012 
	C434.975677,693.337952 427.744415,691.823181 420.386475,695.261536 
	C417.409790,696.652588 415.020813,695.244507 414.831787,691.742920 
	C414.585541,687.181885 411.887054,684.515076 407.968597,683.546509 
	C397.715240,681.012268 390.186066,673.886230 381.853668,668.264465 
	C375.590729,664.039062 369.759979,660.239380 361.811646,662.173035 
	C360.064972,662.598022 358.126923,662.533020 356.951263,660.799072 
	C360.982910,655.098511 361.567566,648.589905 362.126709,641.912354 
	C356.063354,647.338257 349.681519,652.309998 345.733215,659.161011 
	C344.127045,661.947937 345.408295,666.277893 344.888763,669.834656 
	C343.302368,680.695618 341.465759,691.519897 339.757507,702.363342 
	C339.307465,705.219910 338.723907,708.117554 340.987549,710.938477 
	C345.185028,695.721741 346.375061,679.976196 349.702484,664.577026 
	C352.187500,668.505432 350.433167,672.514404 350.016083,676.294922 
	C348.886292,686.535706 347.086487,696.700989 345.705322,706.916870 
	C345.404053,709.145203 344.437897,711.942139 348.646515,713.412476 
	C352.081818,697.603394 351.955597,681.536865 354.840363,665.713074 
	C357.607941,666.872742 357.169006,668.581360 357.008392,669.944641 
	C355.647400,681.496277 354.242615,693.043518 352.722534,704.575073 
	C352.392456,707.079041 352.257050,709.544189 352.536499,712.031921 
	C352.672516,713.243042 353.180725,714.375122 354.557251,714.553223 
	C356.276886,714.775635 356.988281,713.497314 357.193665,712.144775 
	C357.766907,708.369690 358.236725,704.575439 358.621338,700.776001 
	C359.090271,696.143921 359.650391,691.503967 359.757599,686.857849 
	C359.843811,683.120117 362.591248,680.788696 363.826508,677.581909 
	C367.081573,678.215637 367.481567,680.677307 367.265625,683.250977 
	C366.543335,691.859375 365.651733,700.453430 364.886841,709.058472 
	C364.387360,714.677734 363.983521,720.305603 363.561737,725.931519 
	C363.439301,727.564819 363.239288,729.284241 365.850861,730.110107 
	C367.486542,718.000122 366.664612,705.860352 369.986420,694.112976 
	C371.435303,706.858337 368.935669,719.622498 369.859894,732.397827 
	C373.165863,723.277832 371.992157,713.510071 373.674225,703.143494 
	C375.779999,705.774963 376.490173,707.436462 376.110474,709.836426 
	C374.600769,719.379700 374.281860,729.020569 374.254242,738.669128 
	C374.252502,739.270020 374.574158,739.871765 375.215027,740.499329 
	C378.019989,731.395569 376.593933,721.646606 379.288696,712.632385 
	C381.534302,712.048035 382.701965,714.347229 385.043610,714.012390 
	C388.276428,707.924438 388.727081,700.281616 392.702087,693.924866 
	C395.421265,696.004944 394.201447,697.583923 393.723328,699.050171 
	C391.464935,705.976074 389.413757,712.833618 389.349426,720.323242 
	C389.276703,728.789612 393.739014,737.502380 401.469238,741.005981 
	C405.406006,742.790222 409.594177,744.019348 413.532959,745.799805 
	C416.768402,747.262329 420.372681,748.620789 420.829956,753.077576 
	C417.866272,754.945312 416.212646,751.580444 413.592621,751.682373 
	C411.395996,753.445251 413.475128,755.530884 413.275787,756.389709 
	C427.374939,759.640015 438.932312,766.075256 448.025909,776.843323 
	C449.019135,778.019409 449.725220,779.329041 451.510071,779.222839 
	C461.764923,778.612549 471.441467,781.781128 480.622589,785.355713 
	C493.366852,790.317566 504.946899,788.700012 516.533691,782.776245 
	C518.983093,781.523926 521.501282,780.913391 524.615723,780.999878 
	C525.011658,781.007446 524.978638,780.987915 524.978638,780.987915 
M428.381561,447.641785 
	C427.480377,450.510773 426.809204,453.813263 423.158264,454.197784 
	C419.319733,454.602081 417.797394,451.384705 416.212616,448.665436 
	C414.868408,446.358948 414.029358,443.871490 413.616974,441.172119 
	C412.079559,431.108948 415.271149,422.532196 421.954742,414.813782 
	C413.324921,415.362488 407.103027,421.371979 406.276855,429.581665 
	C405.700195,435.312286 406.546448,440.850891 408.407532,446.286621 
	C417.475861,472.773254 429.076813,498.236572 439.773712,524.065247 
	C440.372742,525.511597 441.093750,526.834045 442.893402,526.866760 
	C447.050293,526.942322 451.214691,527.111145 455.211548,525.553833 
	C459.119934,524.031067 460.511139,521.373169 459.373199,517.276367 
	C458.662720,514.718506 458.232147,512.083069 457.673218,509.483002 
	C452.893097,487.246918 451.354797,464.305878 443.174805,442.807648 
	C442.811066,441.851685 442.669250,440.858612 443.651154,440.000458 
	C446.099518,439.207306 446.727325,441.237701 447.591797,442.748444 
	C449.505493,446.092773 450.747498,449.721069 451.830139,453.401520 
	C453.344360,458.549255 461.649567,464.556091 467.441956,464.653137 
	C468.182739,463.617004 468.047852,462.430298 467.943939,461.279938 
	C466.972717,450.525909 464.792328,439.841858 466.101624,428.957764 
	C466.298615,427.319916 465.358307,426.590027 463.968201,426.055847 
	C458.281952,423.870728 452.439636,422.049042 447.082703,418.408356 
	C444.873901,423.182770 442.917328,427.733459 438.808868,430.522064 
	C432.930023,434.512238 429.416870,439.808868 428.381561,447.641785 
M427.902100,767.670837 
	C426.767822,766.971375 425.552734,766.374207 424.513794,765.554016 
	C420.900116,762.700806 417.440826,762.122375 413.189850,764.738281 
	C409.395935,767.072998 405.154694,768.848511 400.903595,770.235840 
	C393.303406,772.715942 391.723389,779.825623 387.009460,785.979919 
	C393.238251,786.696655 398.322510,789.790161 403.152222,787.657776 
	C407.691437,785.653687 411.724609,785.702148 416.175049,786.749207 
	C424.034912,788.598511 431.908600,789.716187 439.625854,786.165649 
	C446.192535,783.144531 446.684052,780.093079 440.858429,775.621643 
	C437.051910,772.700012 432.662109,770.538269 427.902100,767.670837 
M498.484985,542.014282 
	C494.755066,536.174622 488.419037,541.594421 483.923767,538.662964 
	C482.562012,537.774902 481.501892,539.104370 480.972626,540.482727 
	C480.913239,540.637329 480.824829,540.780945 480.748535,540.928955 
	C478.970062,544.378723 476.515808,547.332092 473.688873,549.926331 
	C467.926758,555.213928 461.985352,560.307007 456.251709,565.624573 
	C454.626862,567.131470 452.329651,568.916931 453.773560,571.545105 
	C455.094574,573.949585 457.635681,573.450684 460.040680,573.262939 
	C474.031738,572.170532 484.724640,563.937439 495.930756,556.829224 
	C497.868317,555.600281 498.716949,553.569336 498.685944,551.240601 
	C498.648285,548.411743 498.598694,545.583069 498.484985,542.014282 
M463.787445,537.453918 
	C461.579590,529.459290 461.585541,529.480164 453.479126,531.789612 
	C451.565491,532.334839 449.603821,532.720886 447.651581,533.117981 
	C446.318237,533.389221 444.949890,533.616089 444.489136,535.133667 
	C441.397278,545.316101 433.934784,552.678650 427.914948,560.977722 
	C427.009338,562.226196 425.618073,563.478882 426.482483,565.398560 
	C428.927704,566.391846 431.074524,565.267700 433.252014,564.572083 
	C444.511719,560.975220 452.797455,552.836853 461.724365,545.722595 
	C463.973358,543.930176 465.385651,541.342102 463.787445,537.453918 
M370.492798,643.827881 
	C369.769562,647.234497 368.362946,650.487976 368.274597,654.040039 
	C368.240082,655.427002 368.124054,656.854614 369.851288,657.232605 
	C371.294220,657.548401 372.526184,656.915955 373.190521,655.605347 
	C373.711365,654.577942 374.025818,653.434814 374.345154,652.318298 
	C377.183136,642.396301 380.201752,632.519775 382.754822,622.524597 
	C384.419647,616.006836 389.703094,609.677429 383.795776,602.557373 
	C388.861206,601.025024 394.632080,603.685852 397.698547,599.887634 
	C400.708252,596.159668 399.157654,590.813904 399.107513,585.191895 
	C393.404999,588.081665 388.412628,590.518799 384.155945,594.321777 
	C381.140533,597.015869 377.649048,599.348633 381.048004,604.173584 
	C381.607117,604.967285 380.975586,606.756165 380.625122,608.009888 
	C377.356232,619.703491 374.028503,631.380737 370.492798,643.827881 
M428.733368,433.412506 
	C432.002319,430.326355 435.375732,427.342438 438.517883,424.132172 
	C444.526703,417.992950 445.479218,413.452728 442.016907,407.402496 
	C436.160950,410.150940 430.615814,413.386139 425.870178,417.887146 
	C421.898651,421.653931 419.290222,426.236786 418.056427,431.567627 
	C417.736206,432.951141 416.848999,434.719147 418.726166,435.553802 
	C421.548981,436.808929 421.088104,439.237671 421.296356,441.496643 
	C421.481354,443.503204 420.895325,445.731354 422.912567,447.705841 
	C425.267120,443.059143 425.382172,437.960876 428.733368,433.412506 
M458.236877,481.485992 
	C460.020844,489.637604 460.421967,498.082825 462.850891,506.083557 
	C470.976318,502.694916 474.919220,497.709015 471.868225,489.055817 
	C471.111206,486.908783 471.082123,484.494629 470.796967,482.193542 
	C469.760956,473.833252 464.523041,468.402191 455.220795,466.461121 
	C456.209167,471.299133 457.163177,475.968903 458.236877,481.485992 
M491.968903,364.209259 
	C485.553192,372.757263 479.137451,381.305237 471.822021,391.051941 
	C484.423645,387.260925 495.640686,383.886414 507.605042,380.287109 
	C501.363800,375.133972 497.877747,368.753387 491.968903,364.209259 
M466.508331,312.239471 
	C461.419159,307.785156 453.886139,308.590637 449.130920,303.350037 
	C444.537750,310.600098 443.091156,318.005127 442.484039,325.663605 
	C442.311859,327.835327 443.475525,328.378387 445.408447,328.764709 
	C452.376526,330.157471 456.308655,326.780334 459.701172,318.765259 
	C460.382294,317.156128 460.174713,314.835297 462.432587,314.410645 
	C465.403168,313.851990 464.833099,317.160522 466.197205,318.948822 
	C467.100922,316.584869 466.987305,314.786774 466.508331,312.239471 
M249.776520,762.357361 
	C247.017929,770.198730 244.141068,778.001953 241.584442,785.908569 
	C240.950928,787.867859 239.739075,790.859558 243.213623,791.672791 
	C245.957260,792.314941 248.228378,791.692749 249.329865,788.284607 
	C252.806396,777.527710 256.617584,766.879333 260.242157,756.169617 
	C260.619476,755.054749 261.415009,753.610168 259.007874,752.729309 
	C254.644867,764.955383 250.300217,777.130066 245.955551,789.304688 
	C245.435837,789.143555 244.916107,788.982361 244.396378,788.821228 
	C245.751007,776.994141 252.825409,766.692383 254.948349,754.838562 
	C250.944565,756.033264 250.944565,756.033264 249.776520,762.357361 
M459.260132,347.792664 
	C466.468475,335.176971 468.608795,319.736877 480.922302,309.925934 
	C478.570374,310.137054 476.715698,310.944031 474.803375,311.118500 
	C472.013123,311.373169 471.214264,312.686157 471.259430,315.336090 
	C471.344696,320.335846 470.038025,324.335815 463.730865,323.862366 
	C463.201996,323.822632 462.553558,324.375702 462.077362,324.788055 
	C457.175690,329.032196 455.373291,342.367523 459.260132,347.792664 
M511.869751,530.321472 
	C509.937408,533.228699 507.374908,535.785461 507.383179,539.891724 
	C518.770386,525.033875 530.157593,510.175964 541.544800,495.318085 
	C540.981750,494.874359 540.418762,494.430664 539.855713,493.986938 
	C529.384827,504.861938 520.889832,517.343262 511.869751,530.321472 
M512.267395,482.407013 
	C512.683533,484.432098 509.969025,487.785156 513.424805,488.328461 
	C518.976074,489.201202 524.719177,489.433929 531.830261,488.547363 
	C525.104492,483.374359 519.566284,479.114807 513.900208,474.756866 
	C512.588623,477.321716 512.319458,479.433105 512.267395,482.407013 
M238.879120,772.277039 
	C237.390198,778.275146 232.598785,783.402588 233.311813,789.981140 
	C234.117035,790.273926 234.922272,790.566711 235.727509,790.859497 
	C241.564377,780.565430 244.302490,768.979065 247.884476,757.689453 
	C241.651855,760.327515 241.992493,766.918823 238.879120,772.277039 
M709.933960,686.553894 
	C705.702637,693.095093 701.455627,699.626160 697.243347,706.179565 
	C689.524963,718.187683 687.229004,723.174988 688.141235,728.160706 
	C696.417419,712.137268 706.889526,698.837830 712.343262,682.700073 
	C711.642944,683.785278 710.942566,684.870483 709.933960,686.553894 
M229.068100,777.628174 
	C233.039673,767.484497 238.567108,757.971191 241.883286,747.235291 
	C237.619156,748.068909 221.912720,783.608521 223.227997,788.894714 
	C226.321747,785.852173 226.921982,781.741760 229.068100,777.628174 
M513.931335,522.470886 
	C520.759888,513.518311 527.588379,504.565765 534.617737,495.349945 
	C528.984802,495.930664 506.668518,525.303528 506.762543,531.741455 
	C510.009003,529.444092 511.180145,525.778381 513.931335,522.470886 
M380.358459,727.104736 
	C380.096588,735.733582 378.598938,744.289551 378.903625,752.960083 
	C378.965973,754.734863 379.164764,755.819946 381.332367,755.790710 
	C382.279480,744.572388 382.745239,733.444275 384.561157,722.453003 
	C385.048126,719.505737 383.538788,718.382690 380.417511,717.889465 
	C380.417511,720.992004 380.417511,723.625366 380.358459,727.104736 
M810.352478,779.128601 
	C813.297729,778.322815 816.585205,779.403931 819.704346,777.546082 
	C817.658569,774.223877 816.425964,770.164124 811.307068,773.200195 
	C808.910950,770.010071 810.228760,765.204956 806.280762,762.635315 
	C805.197571,767.258240 804.984375,771.666260 805.367371,776.156250 
	C805.608765,778.984436 806.866211,780.018738 810.352478,779.128601 
M702.405823,714.991516 
	C705.071899,708.651062 710.890198,703.606873 710.605103,694.678101 
	C704.451233,706.138916 697.677185,715.806641 692.655396,726.495605 
	C691.649475,728.636719 691.645630,729.796387 694.283875,730.343079 
	C696.935608,725.311890 699.486389,720.472229 702.405823,714.991516 
M339.501007,687.031372 
	C339.771118,680.227539 342.210358,673.610291 341.013214,666.651184 
	C338.646881,680.143188 333.500824,693.218262 334.419769,707.170044 
	C334.891479,707.246033 335.363190,707.322021 335.834869,707.398010 
	C337.012329,700.900208 338.189758,694.402466 339.501007,687.031372 
M385.308685,746.015503 
	C385.562714,749.913513 383.363861,753.908752 385.941864,757.756836 
	C386.843628,749.263733 388.767609,740.850830 387.457275,732.252563 
	C385.441315,736.430603 385.685730,740.868042 385.308685,746.015503 
M395.444916,759.774292 
	C395.397766,760.887817 395.009857,762.188354 397.534821,762.346497 
	C397.724579,756.303894 399.641754,750.342957 397.276642,744.287354 
	C394.812683,749.022827 395.224091,754.032288 395.444916,759.774292 
M521.339478,414.031647 
	C527.555359,414.660431 523.670532,410.528778 524.531189,408.169434 
	C520.893494,408.168610 518.091675,408.995483 515.257874,410.541504 
	C516.934082,412.437408 518.845398,413.038544 521.339478,414.031647 
M601.418396,768.289917 
	C604.911926,765.562866 608.658691,763.084290 611.656128,758.829468 
	C606.654053,759.092834 600.545959,764.750061 600.403564,768.392761 
	C600.402893,768.408386 600.711487,768.436218 601.418396,768.289917 
M228.731033,759.327820 
	C227.352631,763.306030 225.974228,767.284302 224.595810,771.262512 
	C228.708710,764.822876 231.910202,758.015564 233.819885,750.600586 
	C232.233643,753.282654 230.647385,755.964783 228.731033,759.327820 
M236.404037,770.947693 
	C237.865356,767.297974 239.326675,763.648254 240.787994,759.998535 
	C236.520676,766.270508 233.802170,773.180847 232.220093,780.593689 
	C233.508514,777.609375 234.796921,774.625061 236.404037,770.947693 
M373.744720,622.529175 
	C373.975891,620.972961 375.096588,619.546082 374.198212,616.926147 
	C372.338135,624.099548 369.317871,630.067261 369.010071,636.845459 
	C371.346741,632.597107 372.493103,627.953247 373.744720,622.529175 
M463.090576,419.826752 
	C464.430603,420.374359 465.628937,421.372314 467.286621,421.151733 
	C468.345978,419.945007 469.380157,418.730652 468.740265,416.492096 
	C466.618286,416.848267 464.492310,417.015381 462.489258,417.602081 
	C460.922424,418.061005 461.557831,418.942688 463.090576,419.826752 
M408.562592,752.355713 
	C408.587677,751.019287 409.084534,749.448364 406.740967,748.843079 
	C406.526123,751.621033 405.751801,754.080688 406.923981,756.708069 
	C408.541565,755.662537 408.021729,754.162231 408.562592,752.355713 
M365.029694,653.305969 
	C365.446472,651.402344 365.863281,649.498657 366.280060,647.595032 
	C364.425873,650.440125 362.540436,653.214722 362.983185,656.818237 
	C364.821014,656.336182 364.557037,654.983948 365.029694,653.305969 
z"/>
<path fill="currentColor" opacity="1.000000" stroke="none" 
	d="
M610.491211,533.509766 
	C609.185852,532.194092 608.044983,531.198669 607.095459,530.045654 
	C602.252380,524.164978 596.972046,520.281799 588.499817,519.835632 
	C580.338989,519.405945 572.704590,515.518188 565.617737,510.669128 
	C558.075745,505.508667 542.072266,505.555328 536.004456,515.995483 
	C533.122253,520.954651 530.124634,525.846863 526.921631,531.199951 
	C525.254150,528.992493 525.695984,527.244019 526.249817,525.862244 
	C529.636963,517.412109 534.194031,509.539734 542.520203,505.317596 
	C545.334778,503.890289 549.710327,503.600922 552.925964,503.924194 
	C558.351501,504.469696 564.007507,505.059174 569.015991,508.439362 
	C577.104187,513.897949 585.979919,517.576599 596.125549,516.903870 
	C599.315430,516.692383 601.137634,519.098877 603.143127,521.091553 
	C613.890503,531.770264 624.372925,542.749695 637.019958,551.297241 
	C637.950867,551.926392 638.937317,552.473389 640.241394,553.267761 
	C640.494263,551.283813 640.695190,549.707031 641.076111,546.718201 
	C648.792175,551.349854 656.979675,553.562439 663.024231,559.795349 
	C663.718750,560.511475 664.411804,561.253052 664.967651,562.075928 
	C670.161621,569.764832 677.161255,574.313538 686.480164,575.831421 
	C692.299622,576.779236 696.816101,581.052856 701.874634,583.910767 
	C702.901733,584.491089 703.922058,585.360657 703.188293,586.727234 
	C702.327759,588.329834 700.871826,587.965027 699.742615,587.185608 
	C692.110840,581.917664 683.768066,578.458252 674.753479,576.222351 
	C670.801575,575.242188 668.613281,571.288147 666.024048,568.254944 
	C664.372192,566.319824 663.032837,564.012634 659.874878,562.820496 
	C660.421387,568.286072 665.282410,570.800598 666.960022,576.439575 
	C660.615967,573.948242 659.200378,568.394470 655.814819,564.825562 
	C652.195312,561.010010 648.771912,557.008362 644.657837,552.411865 
	C644.342468,556.884766 648.653931,559.757385 645.992920,563.946777 
	C634.520508,553.213013 621.025696,545.394409 610.491211,533.509766 
z"/>
<path fill="currentColor" opacity="1.000000" stroke="none" 
	d="
M587.008301,530.704712 
	C592.793945,535.984619 598.217407,541.111023 603.781250,546.080139 
	C607.771790,549.644104 608.254211,553.499451 605.666077,558.092224 
	C602.956848,562.899902 599.707458,564.372192 594.181335,563.816711 
	C584.865356,562.880310 576.050720,559.687988 566.868896,558.154602 
	C560.980896,557.171265 559.898560,552.268188 559.539734,547.695862 
	C556.017029,544.882812 552.159180,552.501282 548.611450,546.186157 
	C556.792969,545.507385 562.566528,540.669250 568.788757,536.739380 
	C570.185059,535.857483 571.888977,534.961792 572.624512,533.619446 
	C576.205933,527.083862 581.077515,527.309387 587.008301,530.704712 
M581.250854,538.763062 
	C579.442993,544.412231 577.173340,549.962952 576.847900,556.663269 
	C580.711304,553.497559 585.238770,537.277466 583.875244,533.359375 
	C581.954895,534.362244 582.312866,536.512085 581.250854,538.763062 
M575.456848,538.025818 
	C574.252747,543.623169 571.566711,548.961487 572.874023,555.078918 
	C575.280090,547.543762 578.720215,540.346558 579.855835,531.842346 
	C576.607544,533.040771 576.640442,535.495056 575.456848,538.025818 
M588.272278,554.357544 
	C588.220337,555.927185 586.341370,558.271667 589.496643,558.593445 
	C591.899109,558.838501 591.549927,556.508728 591.780579,554.966675 
	C592.317383,551.378723 592.585449,547.742310 594.003906,544.334290 
	C594.781250,542.466675 594.414551,541.150940 591.903320,540.827332 
	C589.814087,544.846375 589.264954,549.259338 588.272278,554.357544 
M594.997864,554.981018 
	C594.372131,560.037781 595.007874,560.623413 600.094360,559.077148 
	C595.769287,555.065125 602.295288,549.180969 597.024536,544.064209 
	C596.279419,548.143127 595.724548,551.180969 594.997864,554.981018 
M587.269043,545.986450 
	C587.241394,543.200012 590.266968,540.883545 588.744568,537.634094 
	C584.830994,541.165588 581.765259,553.614136 584.089539,557.453247 
	C585.135681,553.657349 586.087830,550.202698 587.269043,545.986450 
z"/>
<path fill="currentColor" opacity="1.000000" stroke="none" 
	d="
M525.028381,781.017578 
	C521.114258,775.191895 518.602051,768.808960 516.485107,762.073425 
	C514.710999,756.429016 509.483063,752.622009 506.151611,747.725952 
	C505.582397,746.889404 504.199707,747.037781 503.407715,747.747437 
	C501.911865,749.087769 500.568512,750.621399 500.751923,752.847473 
	C500.893982,754.571350 502.335480,756.247498 500.292389,758.904358 
	C493.372498,747.567932 486.665955,736.581055 479.959442,725.594177 
	C485.112946,740.995728 493.204224,755.157104 498.477814,770.580811 
	C495.488831,771.565369 494.828491,769.334534 494.183990,767.906799 
	C487.548920,753.208435 480.076141,738.874878 474.523102,723.708923 
	C473.584076,721.144226 473.406494,718.063721 473.736176,715.325012 
	C474.279633,710.810303 472.557709,707.667542 469.347778,704.829773 
	C466.390533,702.215271 463.751648,699.278381 462.210999,695.761597 
	C462.883331,694.786682 463.697296,694.426392 464.144958,694.860291 
	C469.223755,699.782959 475.536896,703.777405 477.996857,710.822388 
	C482.593140,723.985413 490.918732,734.989380 497.972168,747.104553 
	C498.798065,746.513245 499.374725,746.229797 499.781342,745.789368 
	C504.296692,740.898743 506.506897,741.029907 510.104523,746.535950 
	C512.281738,749.868164 514.140259,753.387817 517.555786,755.790833 
	C518.665649,756.571716 519.460388,758.166931 519.846924,759.544617 
	C521.341553,764.870911 523.534363,769.882141 526.071472,774.773315 
	C527.101562,776.759094 527.881714,778.831238 525.275818,780.784363 
	C524.978638,780.987915 525.011658,781.007446 525.028381,781.017578 
z"/>
<path fill="currentColor" opacity="1.000000" stroke="none" 
	d="
M607.846558,609.606079 
	C613.475159,610.299316 618.683228,610.977173 624.411133,611.722778 
	C623.781189,604.955566 622.912903,599.233459 617.750183,594.691711 
	C610.413330,588.237427 603.525452,581.272705 596.334717,574.420349 
	C597.663391,572.037903 599.318665,572.598938 600.763000,573.932983 
	C609.071106,581.606567 617.337891,589.325439 625.543274,597.108521 
	C626.328003,597.852844 626.948792,599.113037 627.045288,600.187683 
	C628.218750,613.267273 635.450378,623.937866 641.114136,635.165405 
	C645.358215,643.578735 647.192932,653.025513 653.250427,660.778564 
	C649.852783,662.617859 648.638855,660.469482 647.723511,658.711487 
	C643.980347,651.523376 640.116333,644.371338 636.897034,636.945801 
	C634.299255,630.954102 631.031189,625.371582 627.997314,619.636780 
	C626.718567,617.219666 624.603271,616.912537 622.306580,616.256775 
	C612.161865,613.360291 601.821838,614.411438 591.525879,614.282593 
	C589.079651,614.252014 586.166138,615.391541 583.496399,611.736328 
	C591.795044,609.951660 599.623047,609.867676 607.846558,609.606079 
z"/>
<path fill="currentColor" opacity="1.000000" stroke="none" 
	d="
M551.018250,600.899780 
	C555.017334,602.214172 558.633179,603.431580 562.261108,604.612122 
	C567.119629,606.193237 571.997925,606.245178 576.943665,604.925720 
	C581.738831,603.646362 586.563660,602.956177 591.298157,604.790771 
	C591.241150,606.575195 590.331909,607.195435 589.338074,607.205444 
	C582.635986,607.273254 576.285950,609.573242 569.685852,610.192383 
	C567.899719,610.359985 565.855530,610.402344 564.275208,609.711731 
	C553.855164,605.158203 542.062744,603.615723 533.274902,595.442200 
	C528.736572,591.221130 523.588501,590.162170 517.662231,592.870056 
	C515.783081,593.728638 513.446838,595.128723 511.078583,593.508362 
	C513.932312,588.763489 524.808411,585.961426 530.041565,588.900208 
	C534.085327,591.171143 537.865662,593.928040 541.673218,596.597046 
	C544.433838,598.532166 547.321167,600.095276 551.018250,600.899780 
z"/>
<path fill="currentColor" opacity="1.000000" stroke="none" 
	d="
M362.010773,793.894409 
	C368.874207,788.845337 375.731293,791.952637 382.337860,792.188293 
	C382.826233,794.180054 382.082336,794.896851 381.128723,795.258484 
	C372.897491,798.379761 364.688446,801.811035 355.572968,800.010986 
	C352.992950,799.501526 350.696747,799.796997 348.325958,800.828186 
	C342.820129,803.222717 337.193085,801.620911 331.630676,801.028564 
	C330.467468,800.904724 328.940552,800.484253 328.674347,798.635498 
	C329.610046,796.126404 331.896240,796.821533 333.701202,796.932678 
	C339.310852,797.278381 344.900360,798.414307 350.205444,795.176575 
	C351.897156,794.144104 354.130432,795.006226 356.093201,795.307556 
	C358.137390,795.621277 360.074921,795.623047 362.010773,793.894409 
z"/>
<path fill="currentColor" opacity="1.000000" stroke="none" 
	d="
M528.079224,645.004761 
	C520.263000,640.948975 512.480957,637.814453 505.310211,633.085571 
	C497.652802,628.035645 487.821533,628.423462 478.943115,626.447998 
	C475.382263,625.655579 472.320038,624.424805 469.906128,621.578369 
	C480.725647,624.327637 491.977783,623.969177 502.582489,627.333130 
	C507.009460,628.737305 509.828278,632.568604 513.933899,634.461365 
	C520.572388,637.521729 527.133362,640.751038 533.707214,643.949829 
	C534.839783,644.500916 536.331360,644.762817 536.477661,646.864197 
	C533.312439,648.752319 531.093506,645.634399 528.079224,645.004761 
z"/>
<path fill="currentColor" opacity="1.000000" stroke="none" 
	d="
M784.054016,710.630615 
	C786.278503,715.285156 784.405823,719.861389 783.926758,724.344055 
	C781.934937,742.982422 779.464661,761.569214 778.268005,780.289551 
	C778.218201,781.067505 777.847534,781.824890 777.576416,782.764954 
	C774.966797,781.765991 775.723572,779.684204 775.754333,778.076538 
	C775.980164,766.275635 777.884766,754.622986 779.042297,742.905029 
	C780.020447,733.002991 781.415039,723.141968 782.621887,713.262451 
	C782.741699,712.281616 782.712402,711.249146 784.054016,710.630615 
z"/>
<path fill="currentColor" opacity="1.000000" stroke="none" 
	d="
M659.066467,767.990845 
	C655.125610,765.526672 652.228210,762.211975 648.115051,760.559265 
	C646.000610,759.709534 644.811890,757.505249 644.907776,755.333252 
	C645.008728,753.047241 647.506104,752.876099 649.143066,752.612610 
	C653.757568,751.869934 658.271301,750.073730 664.082458,750.501526 
	C661.163757,755.696411 654.979797,752.874329 652.370728,757.004333 
	C657.030334,763.452148 665.064148,766.126282 669.627258,772.736206 
	C665.455933,772.778442 662.567932,770.114197 659.066467,767.990845 
z"/>
<path fill="currentColor" opacity="1.000000" stroke="none" 
	d="
M787.426575,774.386047 
	C786.904602,777.789124 788.190674,781.104187 785.090881,783.575195 
	C784.105652,765.208618 789.068298,747.506287 791.572693,729.523865 
	C791.849548,744.483765 789.063599,759.154663 787.426575,774.386047 
z"/>
<path fill="currentColor" opacity="1.000000" stroke="none" 
	d="
M397.227295,638.392212 
	C400.387024,627.780090 403.422577,617.553711 406.790741,606.206909 
	C408.937561,609.594666 407.707123,611.569580 407.178131,613.467896 
	C403.611298,626.267273 399.910645,639.029663 396.410736,651.846985 
	C395.818512,654.015869 394.971039,656.270752 395.833954,658.693054 
	C396.411377,660.313904 395.903168,661.943726 393.897125,661.804199 
	C392.146027,661.682373 392.325012,660.030640 392.461517,658.660278 
	C393.141846,651.829102 395.458771,645.382446 397.227295,638.392212 
z"/>
<path fill="currentColor" opacity="1.000000" stroke="none" 
	d="
M322.692474,750.084717 
	C317.314606,754.538635 310.598907,755.729980 304.452850,757.801514 
	C301.966827,758.639526 298.368408,754.096619 294.538666,753.163330 
	C303.723297,749.062073 313.247009,749.792542 322.692474,750.084717 
z"/>
<path fill="currentColor" opacity="1.000000" stroke="none" 
	d="
M345.344238,740.897217 
	C341.422150,742.698364 337.783569,744.327759 334.112335,745.880127 
	C332.833557,746.420837 331.395081,746.574219 330.464722,745.317627 
	C329.391907,743.868530 330.628998,742.870911 331.513153,741.905457 
	C335.319977,737.748779 339.688873,734.130981 342.913849,729.402527 
	C344.175049,727.553345 346.245331,727.591431 348.533600,729.345520 
	C345.458832,731.920166 342.693695,734.411316 341.403717,737.903259 
	C341.923523,740.284790 346.324066,736.477722 345.344238,740.897217 
z"/>
<path fill="currentColor" opacity="1.000000" stroke="none" 
	d="
M263.684265,773.545044 
	C261.736206,779.308411 259.914703,784.699463 257.889587,790.693176 
	C256.171722,786.022583 265.849762,755.362183 270.313751,751.283081 
	C269.226257,759.456909 265.921417,766.152649 263.684265,773.545044 
z"/>
<path fill="currentColor" opacity="1.000000" stroke="none" 
	d="
M267.648315,783.481323 
	C270.876434,773.338440 274.010742,763.558472 277.178040,753.789185 
	C277.253723,753.555847 277.697632,753.441833 279.446533,752.351624 
	C277.019928,765.228455 272.001404,776.089111 269.407349,787.713928 
	C266.778137,786.831055 267.500946,785.219666 267.648315,783.481323 
z"/>
<path fill="currentColor" opacity="1.000000" stroke="none" 
	d="
M437.052246,627.183960 
	C438.013702,623.828430 438.863770,620.861389 439.875244,617.330933 
	C441.776672,621.551331 437.051788,642.492737 432.742249,648.867249 
	C432.281769,640.609863 435.468781,634.237122 437.052246,627.183960 
z"/>
<path fill="currentColor" opacity="1.000000" stroke="none" 
	d="
M302.522705,767.341492 
	C302.244080,770.989990 304.496857,772.689453 306.826050,774.351929 
	C308.521454,775.562073 310.560516,776.500183 311.043396,780.021118 
	C305.868469,778.927002 302.260040,776.405640 299.892944,772.584229 
	C298.028931,769.574951 297.903564,766.095825 300.751343,763.238525 
	C303.040924,763.952271 302.504547,765.606506 302.522705,767.341492 
z"/>
<path fill="currentColor" opacity="1.000000" stroke="none" 
	d="
M611.548218,793.846558 
	C608.040161,794.445740 604.761902,795.706482 601.929871,792.871033 
	C604.645325,790.115173 610.453552,789.703369 612.493591,792.037598 
	C613.059814,792.685608 612.360840,793.223511 611.548218,793.846558 
z"/>
<path fill="currentColor" opacity="1.000000" stroke="none" 
	d="
M669.805542,681.092773 
	C667.798340,679.094788 665.262817,677.855896 665.089111,674.410156 
	C669.260437,674.719666 671.021362,677.627930 672.222046,680.451660 
	C672.963318,682.194885 671.185730,681.877380 669.805542,681.092773 
z"/>
<path fill="currentColor" opacity="1.000000" stroke="none" 
	d="
M742.416870,746.918823 
	C744.018372,745.486755 745.230225,745.465698 744.836853,747.586975 
	C744.473572,749.545898 744.234436,751.782349 742.028503,753.323120 
	C740.192566,751.118225 741.062134,749.153809 742.416870,746.918823 
z"/>
<path fill="currentColor" opacity="1.000000" stroke="none" 
	d="
M462.330414,628.959473 
	C462.229889,630.471619 462.238373,631.661011 460.659363,632.380432 
	C457.958405,629.627380 459.173920,627.348938 461.049072,624.926575 
	C462.900665,625.912720 462.136902,627.394104 462.330414,628.959473 
z"/>
</svg>